<?xml version="1.0" standalone="no"?>
<!DOCTYPE svg PUBLIC "-//W3C//DTD SVG 20010904//EN"
 "http://www.w3.org/TR/2001/REC-SVG-20010904/DTD/svg10.dtd">
<svg version="1.0" xmlns="http://www.w3.org/2000/svg"
 width="260.000000pt" height="260.000000pt" viewBox="0 0 260.000000 260.000000"
 preserveAspectRatio="xMidYMid meet">
<metadata>
Created by potrace 1.11, written by Peter Selinger 2001-2013
</metadata>
<g transform="translate(0.000000,260.000000) scale(0.100000,-0.100000)"
fill="#000000" stroke="none">
<path d="M1111 2390 c-100 -36 -198 -116 -254 -206 -53 -86 -66 -183 -41 -317
5 -29 4 -37 -6 -35 -22 5 -41 -43 -36 -92 6 -60 42 -155 72 -187 13 -14 24
-33 24 -42 0 -32 58 -137 104 -188 31 -34 71 -64 114 -85 130 -64 265 -37 377
77 49 50 111 157 118 205 2 13 9 26 16 28 29 10 81 162 78 232 -2 26 -8 38
-25 45 -18 8 -22 15 -17 35 27 107 21 276 -13 329 -21 34 -63 70 -82 71 -8 0
-23 12 -33 28 -68 101 -261 150 -396 102z"/>
<path d="M885 1229 c-67 -44 -177 -95 -295 -135 -104 -36 -130 -49 -156 -79
-37 -42 -63 -119 -66 -195 -2 -58 10 -203 18 -233 11 -36 298 -149 444 -173
14 -3 31 -7 38 -9 7 -2 34 -7 60 -10 26 -4 58 -9 72 -12 42 -9 386 -11 432 -3
24 5 68 11 98 15 69 9 70 9 63 43 -18 99 -1 220 44 311 25 49 97 132 148 171
30 23 112 60 148 67 40 7 57 20 57 43 0 20 -17 28 -139 69 -102 34 -284 121
-296 142 -15 23 -26 1 -60 -108 -20 -65 -42 -136 -50 -158 -7 -22 -30 -94 -51
-160 -20 -66 -39 -124 -42 -129 -3 -5 -20 34 -39 87 l-33 97 30 53 c73 130 36
200 -101 192 -43 -2 -57 -7 -76 -29 -36 -43 -29 -93 24 -177 l24 -36 -32 -84
c-17 -46 -33 -91 -36 -99 -4 -11 -8 -8 -15 10 -5 14 -11 32 -13 40 -2 8 -21
71 -43 140 -23 69 -58 180 -79 247 -21 68 -40 123 -43 122 -3 0 -18 -9 -35
-20z"/>
<path d="M2058 885 c-2 -2 -24 -6 -51 -8 -102 -12 -210 -86 -258 -178 -91
-177 -19 -394 160 -478 47 -22 70 -26 146 -26 78 0 98 4 145 27 71 35 133 97
167 167 24 48 27 68 27 146 0 77 -4 98 -26 145 -50 103 -131 167 -245 194 -34
7 -63 13 -65 11z m134 -242 c26 -30 13 -54 -80 -145 -70 -69 -93 -86 -110 -81
-28 7 -102 87 -102 111 0 43 49 56 86 21 l22 -21 69 66 c72 69 90 77 115 49z"/>
</g>
</svg>
