<svg xmlns="http://www.w3.org/2000/svg" x="50" y="54" viewBox="0 0 483 483"><path d="M454.8 482.9H28.1c-6.2 0-11.2-5-11.2-11.2v-42.4c0-33.1 21-62.9 52.2-74l105.1-37.5v-53.1h22.5v61.1c0 4.7-3 9-7.5 10.6L76.6 376.5c-22.3 8-37.3 29.2-37.3 52.9v31.1h404.3v-31.1c0-23.7-15-44.9-37.3-52.9l-112.5-40.2c-4.5-1.6-7.5-5.8-7.5-10.6v-65.3h22.5v57.4l105 37.5c31.2 11.1 52.2 40.9 52.2 74v42.4C466.1 477.9 461.1 482.9 454.8 482.9z"/><path d="M238.7 292c-68.1 0-123.5-65.5-123.5-146S170.5 0 238.7 0c68.1 0 123.5 65.5 123.5 146S306.8 292 238.7 292zM238.7 22.5c-55.7 0-101.1 55.4-101.1 123.5s45.3 123.5 101.1 123.5S339.7 214.1 339.7 146 294.4 22.5 238.7 22.5z"/><path d="M320.7 148c-26.5 0-47.6-11.8-65.5-36.8C236 131.3 202.1 146 171.3 146c-17.9 0-33.3-3.7-48.7-11.7l10.4-19.9c12.2 6.4 24 9.2 38.3 9.2 29.4 0 64.2-17.4 74.6-37.3 1.9-3.6 5.6-6 9.7-6 0.1 0 0.2 0 0.2 0 4 0 7.7 2.2 9.8 5.7 19.1 33.6 39.3 44.2 72 37.9l11.1-1.2 2.3 22.4 -10.2 1.1C333.8 147.3 327.1 148 320.7 148z"/></svg>
