<svg xmlns="http://www.w3.org/2000/svg" viewBox="0 0 539.1 539.1"><path d="M269.5 539.1c-3.8 0-7.3-1.9-9.4-5 -7-10.5-170.3-259-170.3-354.3C89.8 80.6 170.5 0 269.5 0s179.7 80.6 179.7 179.7c0 95.4-163.4 343.8-170.3 354.3C276.8 537.2 273.3 539.1 269.5 539.1zM269.5 22.5c-86.7 0-157.2 70.5-157.2 157.2 0 76.3 122 272.5 157.2 327.5 35.2-55 157.2-251.2 157.2-327.5C426.8 93 356.2 22.5 269.5 22.5z"/><path d="M269.5 258.3c-43.3 0-78.6-35.3-78.6-78.6s35.3-78.6 78.6-78.6 78.6 35.3 78.6 78.6S312.9 258.3 269.5 258.3zM269.5 123.5c-31 0-56.2 25.2-56.2 56.2s25.2 56.2 56.2 56.2c31 0 56.2-25.2 56.2-56.2S300.5 123.5 269.5 123.5z"/></svg>
