<svg xmlns="http://www.w3.org/2000/svg" viewBox="0 0 539.1 539.1"><path d="M348.2 539.1H78.6C35.3 539.1 0 503.8 0 460.5s35.3-78.6 78.6-78.6h33.7V78.6C112.3 35.3 147.6 0 190.9 0h269.5c1.1 0 2.2 0.2 3.2 0.5C466.3 0.2 469 0 471.7 0c39.7 0 67.4 32.3 67.4 78.6 0 6.2-5 11.2-11.2 11.2H426.8v370.6C426.8 503.8 391.5 539.1 348.2 539.1zM348.2 404.3c-31 0-56.2 25.2-56.2 56.2s25.2 56.2 56.2 56.2 56.2-25.2 56.2-56.2V67.4c0-17.2 6.5-33 17.2-44.9H190.9c-31 0-56.2 25.2-56.2 56.2v303.2h213.4c6.2 0 11.2 5 11.2 11.2C359.4 399.3 354.4 404.3 348.2 404.3zM78.6 404.3c-31 0-56.2 25.2-56.2 56.2s25.2 56.2 56.2 56.2h214.6c-14.6-14.3-23.6-34.2-23.6-56.2 0-22 9.1-41.9 23.6-56.2H78.6zM426.8 67.4h89.1c-3.6-27.3-20.4-44.9-44.2-44.9C446.9 22.5 426.8 42.6 426.8 67.4zM325.7 336.9H202.2c-6.2 0-11.2-5-11.2-11.2 0-6.2 5-11.2 11.2-11.2h123.5c6.2 0 11.2 5 11.2 11.2C336.9 331.9 331.9 336.9 325.7 336.9zM325.7 269.5H202.2c-6.2 0-11.2-5-11.2-11.2 0-6.2 5-11.2 11.2-11.2h123.5c6.2 0 11.2 5 11.2 11.2C336.9 264.5 331.9 269.5 325.7 269.5zM325.7 202.2H202.2c-6.2 0-11.2-5-11.2-11.2 0-6.2 5-11.2 11.2-11.2h123.5c6.2 0 11.2 5 11.2 11.2C336.9 197.1 331.9 202.2 325.7 202.2zM325.7 134.8H202.2c-6.2 0-11.2-5-11.2-11.2s5-11.2 11.2-11.2h123.5c6.2 0 11.2 5 11.2 11.2S331.9 134.8 325.7 134.8z"/></svg>
