<svg xmlns="http://www.w3.org/2000/svg" viewBox="0 0 539.1 539.1"><path d="M393.1 539.1H146c-31 0-56.2-25.2-56.2-56.2V56.2C89.8 25.2 115 0 146 0h247.1c31 0 56.2 25.2 56.2 56.2v426.8C449.2 513.9 424 539.1 393.1 539.1zM112.3 449.2v33.7c0 18.6 15.1 33.7 33.7 33.7h247.1c18.6 0 33.7-15.1 33.7-33.7v-33.7H112.3zM112.3 426.8h314.5V112.3H112.3V426.8zM112.3 89.8h314.5V56.2c0-18.6-15.1-33.7-33.7-33.7H146c-18.6 0-33.7 15.1-33.7 33.7V89.8zM325.7 67.4H213.4c-6.2 0-11.2-5-11.2-11.2s5-11.2 11.2-11.2h112.3c6.2 0 11.2 5 11.2 11.2S331.9 67.4 325.7 67.4z"/><path d="M269.5 505.4c-12.4 0-22.5-10.1-22.5-22.5 0-12.4 10.1-22.5 22.5-22.5 12.4 0 22.5 10.1 22.5 22.5C292 495.3 281.9 505.4 269.5 505.4z"/></svg>
