<svg xmlns="http://www.w3.org/2000/svg" viewBox="0 0 538.7 538.7"><path d="M241.2 392.7c-105.3 0-190.9-85.7-190.9-190.9S135.9 10.9 241.2 10.9s190.9 85.6 190.9 190.9S346.5 392.7 241.2 392.7zM241.2 33.4c-92.9 0-168.5 75.6-168.5 168.5 0 92.9 75.6 168.5 168.5 168.5 92.9 0 168.5-75.6 168.5-168.5C409.7 108.9 334.1 33.4 241.2 33.4z"/><path d="M252.4 493.8c-6.2 0-11.2-5-11.2-11.2 0 6.2-5 11.2-11.2 11.2s-11.2-5-11.2-11.2V448.9c0-6.2 5-11.2 11.2-11.2s11.2 5 11.2 11.2c0-6.2 5-11.2 11.2-11.2s11.2 5 11.2 11.2v33.7C263.7 488.8 258.6 493.8 252.4 493.8z"/><path d="M375.5 538.7H106.8c-4.8 0-9.1-3.1-10.7-7.7 -1.5-4.6 0.1-9.7 3.9-12.5 41.2-30.8 90-47.2 141.1-47.2 51.1 0 99.9 16.3 141.1 47.2 3.9 2.9 5.4 8 3.9 12.5C384.7 535.6 380.4 538.7 375.5 538.7zM146.2 516.3h190C277.4 486.7 204.9 486.7 146.2 516.3zM241.2 460c-62.7 0-125.3-22.6-174.5-67.8l-8.1 8.1c-4.4 4.4-11.5 4.4-15.9 0s-4.4-11.5 0-15.9l15.2-15.2c0.2-0.2 0.4-0.5 0.6-0.7 0.2-0.2 0.5-0.4 0.7-0.6l15.2-15.2c4.4-4.4 11.5-4.4 15.9 0 4.4 4.4 4.4 11.5 0 15.9l-7.7 7.7c92.4 84.1 236.1 81.5 325.4-7.7 89.3-89.3 91.9-233 7.7-325.4l-7.7 7.8c-4.4 4.4-11.5 4.4-15.9 0s-4.4-11.5 0-15.9L423.8 3.3c4.4-4.4 11.5-4.4 15.9 0s4.4 11.5 0 15.9l-8.1 8.1c92.9 101.2 90.3 259.1-7.8 357.2C373.5 434.8 307.3 460 241.2 460z"/></svg>
