<svg xmlns="http://www.w3.org/2000/svg" viewBox="0 0 539.1 539.1"><path d="M438 494.2H101.1v-22.5H438V494.2zM494.2 438h-22.5V101.1h22.5V438zM67.4 438H44.9V101.1h22.5V438zM438 67.4H101.1V44.9H438V67.4z"/><path d="M527.8 539.1H438c-6.2 0-11.2-5-11.2-11.2V438c0-6.2 5-11.2 11.2-11.2h89.8c6.2 0 11.2 5 11.2 11.2v89.8C539.1 534.1 534.1 539.1 527.8 539.1zM449.2 516.6h67.4v-67.4h-67.4V516.6zM101.1 539.1H11.2C5 539.1 0 534.1 0 527.8V438c0-6.2 5-11.2 11.2-11.2h89.8c6.2 0 11.2 5 11.2 11.2v89.8C112.3 534.1 107.3 539.1 101.1 539.1zM22.5 516.6h67.4v-67.4H22.5V516.6zM527.8 112.3H438c-6.2 0-11.2-5-11.2-11.2V11.2C426.8 5 431.8 0 438 0h89.8c6.2 0 11.2 5 11.2 11.2v89.8C539.1 107.3 534.1 112.3 527.8 112.3zM449.2 89.8h67.4V22.5h-67.4V89.8zM101.1 112.3H11.2C5 112.3 0 107.3 0 101.1V11.2C0 5 5 0 11.2 0h89.8c6.2 0 11.2 5 11.2 11.2v89.8C112.3 107.3 107.3 112.3 101.1 112.3zM22.5 89.8h67.4V22.5H22.5V89.8z"/></svg>
