<svg xmlns="http://www.w3.org/2000/svg" viewBox="0 0 539.1 539.1"><path d="M404.3 426.8h-22.5c-6.2 0-11.2-5-11.2-11.2 0-6.2 5-11.2 11.2-11.2h22.5c31 0 56.2-25.2 56.2-56.2S435.3 292 404.3 292h-22.5c-6.2 0-11.2-5-11.2-11.2s5-11.2 11.2-11.2h22.5c43.3 0 78.6 35.3 78.6 78.6S447.7 426.8 404.3 426.8z"/><path d="M336.9 539.1H134.8c-31 0-56.2-25.2-56.2-56.2V235.8c0-6.2 5-11.2 11.2-11.2h218l50.8-91.2c-4.2-4.2-7.5-9-9.8-14.4 -4.8-11.3-4.5-24.5 0.8-37 2.8-6.6 7.3-12.3 12.2-18.4 12.7-16 19.8-26.7 7.9-44.8 -2.5-3.8-2.5-8.9 0.2-12.6 2.7-3.8 7.3-5.5 11.8-4.4 32.5 7.9 55.5 30.8 63.1 62.9 6.8 28.9-0.8 58.7-19 74.1 -6.4 5.5-13.8 8.8-21.7 10l-28.6 75.9h6.2c6.2 0 11.2 5 11.2 11.2v247.1C393.1 513.9 367.9 539.1 336.9 539.1zM101.1 247.1v235.8c0 18.6 15.1 33.7 33.7 33.7h202.2c18.6 0 33.7-15.1 33.7-33.7V247.1h-11c-0.2 0-0.4 0-0.5 0h-44.4c-0.2 0-0.3 0-0.5 0H101.1zM333.6 224.6h18.1l29.5-78c-1.1-0.4-2.3-0.8-3.4-1.2L333.6 224.6zM380.1 121.8c1.3 0.8 2.7 1.4 4.1 2.1 10.9 4.6 20 3.8 27.2-2.3 11.5-9.8 16.4-31.5 11.6-51.8 -3.7-15.6-12.4-28.2-24.8-36.7 1.3 19.1-10.3 33.7-18.8 44.4 -3.9 4.9-7.5 9.5-9.1 13.2 -2.9 7-3.2 13.8-0.8 19.6 1.7 4 4.5 7.4 8.5 10.2 0.2 0.1 0.3 0.2 0.5 0.3C379.1 121 379.6 121.4 380.1 121.8z"/><path d="M179.7 247.1h-67.4c-4.3 0-8.1-2.4-10-6.2L68.7 173.7c-0.6-1.1-1-2.3-1.2-3.6l-11.2-67.2c-0.7-4.3 1.1-8.7 4.8-11.1 3.6-2.5 8.3-2.6 12.1-0.4l55.9 33.6c1.3 0.7 2.4 1.7 3.3 2.9 0 0 0 0 0 0 0 0 0 0 0 0 0 0 0 0 0 0 0 0 0 0 0 0l0 0c0 0 0 0 0 0 0 0 0 0 0 0 0 0 0 0 0 0l0 0c0 0 0 0 0 0 0.3 0.5 0.6 0.9 0.9 1.4l56.1 100.9c1.9 3.5 1.9 7.7-0.1 11.1C187.4 245 183.7 247.1 179.7 247.1zM119.3 224.6h41.4l-40.6-73.1 -27.1 20.3L119.3 224.6zM82.5 123.2l4.2 25.2 16.8-12.6L82.5 123.2z"/><path d="M292 247.1h-89.8c-6.2 0-11.2-5-11.2-11.2V11.2C190.9 5 195.9 0 202.2 0H292c6.2 0 11.2 5 11.2 11.2v224.6C303.2 242.1 298.2 247.1 292 247.1zM213.4 224.6h67.4v-22.5h-11.2c-6.2 0-11.2-5-11.2-11.2 0-6.2 5-11.2 11.2-11.2h11.2v-22.5h-33.7c-6.2 0-11.2-5-11.2-11.2s5-11.2 11.2-11.2h33.7v-22.5h-11.2c-6.2 0-11.2-5-11.2-11.2 0-6.2 5-11.2 11.2-11.2h11.2V67.4h-33.7c-6.2 0-11.2-5-11.2-11.2s5-11.2 11.2-11.2h33.7V22.5h-67.4V224.6z"/></svg>
