<svg xmlns="http://www.w3.org/2000/svg" viewBox="0 0 539.1 539.1"><path d="M269.5 157.2c-43.3 0-78.6-35.3-78.6-78.6S226.2 0 269.5 0s78.6 35.3 78.6 78.6S312.9 157.2 269.5 157.2zM269.5 22.5c-31 0-56.2 25.2-56.2 56.2s25.2 56.2 56.2 56.2c31 0 56.2-25.2 56.2-56.2S300.5 22.5 269.5 22.5z"/><path d="M269.5 539.1C138.9 539.1 0 503.7 0 438c0-53.4 92.1-84.3 178.2-95.4 6.1-0.8 11.8 3.6 12.6 9.7 0.8 6.2-3.6 11.8-9.7 12.6C77 378.3 22.5 411.8 22.5 438c0 37.2 101.5 78.6 247.1 78.6S516.6 475.2 516.6 438c0-26.2-54.5-59.7-158.6-73.1 -6.1-0.8-10.5-6.4-9.7-12.6 0.8-6.2 6.2-10.5 12.6-9.7 86.1 11.1 178.2 42.1 178.2 95.4C539.1 503.7 400.2 539.1 269.5 539.1zM269.5 482.9c-62.6 0-168.5-10.6-168.5-50.5 0-19.9 25.8-34.4 76.5-43.3 6.1-1.2 11.9 3 13 9.1 1.1 6.1-3 11.9-9.1 13 -45.1 7.9-57.2 18.9-58 21.4 3 9.4 55.9 27.8 146 27.8s143-18.4 146-28.3c-0.8-2-12.8-13-57.7-20.9 -6.1-1.1-10.2-6.9-9.1-13 1.1-6.1 7-10.3 13-9.1C412.4 398 438 412.6 438 432.4 438 472.3 332.1 482.9 269.5 482.9zM303.2 426.8h-67.4c-6.2 0-11.2-5-11.2-11.2V326.5c-43.8-21-67.4-83.9-67.4-135.5 0-6.2 5-11.2 11.2-11.2h202.2c6.2 0 11.2 5 11.2 11.2 0 51.6-23.6 114.5-67.4 135.5v89.1C314.5 421.7 309.4 426.8 303.2 426.8zM247.1 404.3H292v-85.3c0-4.8 3-9 7.5-10.6 34-11.9 56.1-62.1 59.4-106.2H180.1c3.3 44.1 25.4 94.3 59.4 106.2 4.5 1.6 7.5 5.8 7.5 10.6V404.3z"/></svg>
