<svg xmlns="http://www.w3.org/2000/svg" viewBox="0 0 539.1 539.1"><path d="M303.2 539.1h-67.4c-4.3 0-8.3-2.5-10.1-6.4L91 251.9c-1.7-3.4-1.4-7.5 0.6-10.7l86.2-140.1L125.3 17.2c-2.2-3.5-2.3-7.8-0.3-11.4C126.9 2.2 130.7 0 134.8 0h258.3c3.9 0 7.5 2 9.6 5.3 2 3.3 2.2 7.4 0.5 10.9l-42.1 84.3 86.6 140.7c2 3.3 2.2 7.3 0.6 10.7l-134.8 280.8C311.5 536.6 307.6 539.1 303.2 539.1zM280.8 516.6h15.4l129-268.9 -83.3-135.4H197.2l-83.3 135.4L242.9 516.6h15.4V280.8c0-6.2 5-11.2 11.2-11.2 6.2 0 11.2 5 11.2 11.2V516.6zM197.2 89.8h144.1l33.7-67.4H155L197.2 89.8z"/><path d="M269.5 292c-31 0-56.2-25.2-56.2-56.2s25.2-56.2 56.2-56.2c31 0 56.2 25.2 56.2 56.2S300.5 292 269.5 292zM269.5 202.2c-18.6 0-33.7 15.1-33.7 33.7s15.1 33.7 33.7 33.7c18.6 0 33.7-15.1 33.7-33.7S288.1 202.2 269.5 202.2z"/></svg>
